<svg width="26" height="32" viewBox="0 0 26 32" fill="none" xmlns="http://www.w3.org/2000/svg">
<path d="M19.3639 0.016014C19.2959 -0.059986 16.8459 0.0460141 14.7139 2.36001C12.5819 4.67201 12.9099 7.32401 12.9579 7.39201C13.0059 7.46001 15.9979 7.56601 17.9079 4.87601C19.8179 2.18601 19.4319 0.094014 19.3639 0.016014ZM25.9919 23.482C25.8959 23.29 21.3419 21.014 21.7659 16.638C22.1899 12.26 25.1159 11.06 25.1619 10.93C25.2079 10.8 23.9678 9.35001 22.6539 8.61601C21.6891 8.09852 20.6213 7.80203 19.5279 7.74801C19.3119 7.74201 18.5619 7.55801 17.0199 7.98001C16.0039 8.25801 13.7139 9.15801 13.0839 9.19401C12.4519 9.23001 10.5719 8.15001 8.54985 7.86401C7.25585 7.61401 5.88385 8.12601 4.90185 8.52001C3.92185 8.91201 2.05785 10.028 0.753852 12.994C-0.550148 15.958 0.131852 20.654 0.619852 22.114C1.10785 23.572 1.86985 25.962 3.16585 27.706C4.31785 29.674 5.84585 31.04 6.48385 31.504C7.12185 31.968 8.92185 32.276 10.1699 31.638C11.1739 31.022 12.9859 30.668 13.7019 30.694C14.4159 30.72 15.8239 31.002 17.2659 31.772C18.4079 32.166 19.4879 32.002 20.5699 31.562C21.6519 31.12 23.2179 29.444 25.0459 26.046C25.7399 24.466 26.0559 23.612 25.9919 23.482Z" fill="white"/>
</svg>
