<svg width="48" height="48" viewBox="0 0 48 48" fill="none" xmlns="http://www.w3.org/2000/svg">
<path d="M24 0.959961C11.2752 0.959961 0.959961 11.2752 0.959961 24C0.959961 36.7248 11.2752 47.04 24 47.04C36.7248 47.04 47.04 36.7248 47.04 24C47.04 11.2752 36.7248 0.959961 24 0.959961ZM32.8608 26.9544C32.8608 26.9544 34.8984 28.9656 35.4 29.8992C35.4144 29.9184 35.4216 29.9376 35.4264 29.9472C35.6304 30.2904 35.6784 30.5568 35.5776 30.756C35.4096 31.0872 34.8336 31.2504 34.6368 31.2648H31.0368C30.7872 31.2648 30.264 31.2 29.6304 30.7632C29.1432 30.4224 28.6632 29.8632 28.1952 29.3184C27.4968 28.5072 26.892 27.8064 26.2824 27.8064C26.2049 27.8062 26.128 27.8184 26.0544 27.8424C25.5936 27.9912 25.0032 28.6488 25.0032 30.4008C25.0032 30.948 24.5712 31.2624 24.2664 31.2624H22.6176C22.056 31.2624 19.1304 31.0656 16.5384 28.332C13.3656 24.984 10.5096 18.2688 10.4856 18.2064C10.3056 17.772 10.6776 17.5392 11.0832 17.5392H14.7192C15.204 17.5392 15.3624 17.8344 15.4728 18.096C15.6024 18.4008 16.0776 19.6128 16.8576 20.976C18.1224 23.1984 18.8976 24.1008 19.5192 24.1008C19.6357 24.0994 19.7502 24.0697 19.8528 24.0144C20.664 23.5632 20.5128 20.6712 20.4768 20.0712C20.4768 19.9584 20.4744 18.7776 20.0592 18.2112C19.7616 17.8008 19.2552 17.6448 18.948 17.5872C19.0723 17.4156 19.2361 17.2765 19.4256 17.1816C19.9824 16.9032 20.9856 16.8624 21.9816 16.8624H22.536C23.616 16.8768 23.8944 16.9464 24.2856 17.0448C25.0776 17.2344 25.0944 17.7456 25.0248 19.4952C25.0032 19.992 24.9816 20.5536 24.9816 21.216C24.9816 21.36 24.9744 21.5136 24.9744 21.6768C24.9504 22.5672 24.9216 23.5776 25.5504 23.9928C25.6324 24.0442 25.7272 24.0716 25.824 24.072C26.0424 24.072 26.7 24.072 28.4808 21.0168C29.03 20.0334 29.5072 19.0115 29.9088 17.9592C29.9448 17.8968 30.0504 17.7048 30.1752 17.6304C30.2673 17.5834 30.3694 17.5595 30.4728 17.5608H34.7472C35.2128 17.5608 35.532 17.6304 35.592 17.8104C35.6976 18.096 35.5728 18.9672 33.6216 21.6096L32.7504 22.7592C30.9816 25.0776 30.9816 25.1952 32.8608 26.9544Z" fill="white"/>
</svg>
